<svg width="960" height="320" viewBox="0 0 960 320" fill="none" xmlns="http://www.w3.org/2000/svg">
  <defs>
    <linearGradient id="c2g" x1="0" y1="0" x2="1" y2="1">
      <stop offset="0%" stop-color="#4F46E5"/>
      <stop offset="100%" stop-color="#818CF8"/>
    </linearGradient>
  </defs>

  <rect width="960" height="320" rx="32" fill="#0A0A0F"/>

  <g transform="translate(82 70)">
    <circle cx="90" cy="90" r="86" fill="#151527" stroke="#2A2A40" stroke-width="2"/>
    <path d="M40 98C62 48 112 34 156 46C132 52 122 68 120 84C117 104 132 121 164 132C128 150 76 148 40 98Z" fill="url(#c2g)"/>
    <path d="M79 117C91 90 115 78 135 80C119 89 114 99 113 108C111 118 118 127 132 134C114 140 95 136 79 117Z" fill="#F1F1F3"/>
    <circle cx="135" cy="88" r="4" fill="#0A0A0F"/>
  </g>

  <g transform="translate(302 102)">
    <text x="0" y="70" fill="#F1F1F3" font-family="Inter, Segoe UI, Arial, sans-serif" font-size="94" font-weight="800" letter-spacing="-1.5">Orka</text>
    <text x="4" y="104" fill="#A1A1B5" font-family="Inter, Segoe UI, Arial, sans-serif" font-size="24" font-weight="500" letter-spacing="1.2">GUEST CARE</text>
  </g>
</svg>
