<svg width="960" height="320" viewBox="0 0 960 320" fill="none" xmlns="http://www.w3.org/2000/svg">
  <defs>
    <linearGradient id="c1g" x1="0" y1="0" x2="1" y2="1">
      <stop offset="0%" stop-color="#6366F1"/>
      <stop offset="100%" stop-color="#818CF8"/>
    </linearGradient>
    <filter id="c1shadow" x="-20%" y="-20%" width="140%" height="140%">
      <feDropShadow dx="0" dy="6" stdDeviation="8" flood-color="#312E81" flood-opacity="0.35"/>
    </filter>
  </defs>

  <rect x="0" y="0" width="960" height="320" rx="32" fill="#0A0A0F"/>

  <g transform="translate(78 78)" filter="url(#c1shadow)">
    <rect x="0" y="0" width="164" height="164" rx="38" fill="url(#c1g)"/>
    <path d="M40 112C48 70 78 46 118 44C112 52 108 62 106 72C103 91 109 105 124 116C98 126 70 126 40 112Z" fill="white" fill-opacity="0.96"/>
    <circle cx="117" cy="73" r="4.5" fill="#312E81"/>
  </g>

  <g transform="translate(300 108)">
    <text x="0" y="82" fill="#F1F1F3" font-family="Inter, Segoe UI, Arial, sans-serif" font-size="108" font-weight="800" letter-spacing="-2">ORKA</text>
    <rect x="2" y="98" width="214" height="8" rx="4" fill="#6366F1" fill-opacity="0.9"/>
  </g>
</svg>
